<?xml version="1.0" encoding="utf-8" standalone="no"?>
<!DOCTYPE svg PUBLIC "-//W3C//DTD SVG 1.1//EN"
  "http://www.w3.org/Graphics/SVG/1.1/DTD/svg11.dtd">
<!-- Created with matplotlib (https://matplotlib.org/) -->
<svg height="345.6pt" version="1.1" viewBox="0 0 460.8 345.6" width="460.8pt" xmlns="http://www.w3.org/2000/svg" xmlns:xlink="http://www.w3.org/1999/xlink">
 <metadata>
  <rdf:RDF xmlns:cc="http://creativecommons.org/ns#" xmlns:dc="http://purl.org/dc/elements/1.1/" xmlns:rdf="http://www.w3.org/1999/02/22-rdf-syntax-ns#">
   <cc:Work>
    <dc:type rdf:resource="http://purl.org/dc/dcmitype/StillImage"/>
    <dc:date>2022-04-25T22:18:23.324453</dc:date>
    <dc:format>image/svg+xml</dc:format>
    <dc:creator>
     <cc:Agent>
      <dc:title>Matplotlib v3.3.4, https://matplotlib.org/</dc:title>
     </cc:Agent>
    </dc:creator>
   </cc:Work>
  </rdf:RDF>
 </metadata>
 <defs>
  <style type="text/css">*{stroke-linecap:butt;stroke-linejoin:round;}</style>
 </defs>
 <g id="figure_1">
  <g id="patch_1">
   <path d="M 0 345.6 
L 460.8 345.6 
L 460.8 0 
L 0 0 
z
" style="fill:#ffffff;"/>
  </g>
  <g id="axes_1">
   <g id="patch_2">
    <path d="M 57.6 307.584 
L 414.72 307.584 
L 414.72 41.472 
L 57.6 41.472 
z
" style="fill:#ffffff;"/>
   </g>
   <g id="matplotlib.axis_1">
    <g id="xtick_1">
     <g id="line2d_1">
      <defs>
       <path d="M 0 0 
L 0 3.5 
" id="m85f8740f35" style="stroke:#000000;stroke-width:0.8;"/>
      </defs>
      <g>
       <use style="stroke:#000000;stroke-width:0.8;" x="73.832727" xlink:href="#m85f8740f35" y="307.584"/>
      </g>
     </g>
     <g id="text_1">
      <!-- 0 -->
      <g transform="translate(70.651477 322.182437)scale(0.1 -0.1)">
       <defs>
        <path d="M 31.78125 66.40625 
Q 24.171875 66.40625 20.328125 58.90625 
Q 16.5 51.421875 16.5 36.375 
Q 16.5 21.390625 20.328125 13.890625 
Q 24.171875 6.390625 31.78125 6.390625 
Q 39.453125 6.390625 43.28125 13.890625 
Q 47.125 21.390625 47.125 36.375 
Q 47.125 51.421875 43.28125 58.90625 
Q 39.453125 66.40625 31.78125 66.40625 
z
M 31.78125 74.21875 
Q 44.046875 74.21875 50.515625 64.515625 
Q 56.984375 54.828125 56.984375 36.375 
Q 56.984375 17.96875 50.515625 8.265625 
Q 44.046875 -1.421875 31.78125 -1.421875 
Q 19.53125 -1.421875 13.0625 8.265625 
Q 6.59375 17.96875 6.59375 36.375 
Q 6.59375 54.828125 13.0625 64.515625 
Q 19.53125 74.21875 31.78125 74.21875 
z
" id="DejaVuSans-48"/>
       </defs>
       <use xlink:href="#DejaVuSans-48"/>
      </g>
     </g>
    </g>
    <g id="xtick_2">
     <g id="line2d_2">
      <g>
       <use style="stroke:#000000;stroke-width:0.8;" x="125.777455" xlink:href="#m85f8740f35" y="307.584"/>
      </g>
     </g>
     <g id="text_2">
      <!-- 500 -->
      <g transform="translate(116.233705 322.182437)scale(0.1 -0.1)">
       <defs>
        <path d="M 10.796875 72.90625 
L 49.515625 72.90625 
L 49.515625 64.59375 
L 19.828125 64.59375 
L 19.828125 46.734375 
Q 21.96875 47.46875 24.109375 47.828125 
Q 26.265625 48.1875 28.421875 48.1875 
Q 40.625 48.1875 47.75 41.5 
Q 54.890625 34.8125 54.890625 23.390625 
Q 54.890625 11.625 47.5625 5.09375 
Q 40.234375 -1.421875 26.90625 -1.421875 
Q 22.3125 -1.421875 17.546875 -0.640625 
Q 12.796875 0.140625 7.71875 1.703125 
L 7.71875 11.625 
Q 12.109375 9.234375 16.796875 8.0625 
Q 21.484375 6.890625 26.703125 6.890625 
Q 35.15625 6.890625 40.078125 11.328125 
Q 45.015625 15.765625 45.015625 23.390625 
Q 45.015625 31 40.078125 35.4375 
Q 35.15625 39.890625 26.703125 39.890625 
Q 22.75 39.890625 18.8125 39.015625 
Q 14.890625 38.140625 10.796875 36.28125 
z
" id="DejaVuSans-53"/>
       </defs>
       <use xlink:href="#DejaVuSans-53"/>
       <use x="63.623047" xlink:href="#DejaVuSans-48"/>
       <use x="127.246094" xlink:href="#DejaVuSans-48"/>
      </g>
     </g>
    </g>
    <g id="xtick_3">
     <g id="line2d_3">
      <g>
       <use style="stroke:#000000;stroke-width:0.8;" x="177.722182" xlink:href="#m85f8740f35" y="307.584"/>
      </g>
     </g>
     <g id="text_3">
      <!-- 1000 -->
      <g transform="translate(164.997182 322.182437)scale(0.1 -0.1)">
       <defs>
        <path d="M 12.40625 8.296875 
L 28.515625 8.296875 
L 28.515625 63.921875 
L 10.984375 60.40625 
L 10.984375 69.390625 
L 28.421875 72.90625 
L 38.28125 72.90625 
L 38.28125 8.296875 
L 54.390625 8.296875 
L 54.390625 0 
L 12.40625 0 
z
" id="DejaVuSans-49"/>
       </defs>
       <use xlink:href="#DejaVuSans-49"/>
       <use x="63.623047" xlink:href="#DejaVuSans-48"/>
       <use x="127.246094" xlink:href="#DejaVuSans-48"/>
       <use x="190.869141" xlink:href="#DejaVuSans-48"/>
      </g>
     </g>
    </g>
    <g id="xtick_4">
     <g id="line2d_4">
      <g>
       <use style="stroke:#000000;stroke-width:0.8;" x="229.666909" xlink:href="#m85f8740f35" y="307.584"/>
      </g>
     </g>
     <g id="text_4">
      <!-- 1500 -->
      <g transform="translate(216.941909 322.182437)scale(0.1 -0.1)">
       <use xlink:href="#DejaVuSans-49"/>
       <use x="63.623047" xlink:href="#DejaVuSans-53"/>
       <use x="127.246094" xlink:href="#DejaVuSans-48"/>
       <use x="190.869141" xlink:href="#DejaVuSans-48"/>
      </g>
     </g>
    </g>
    <g id="xtick_5">
     <g id="line2d_5">
      <g>
       <use style="stroke:#000000;stroke-width:0.8;" x="281.611636" xlink:href="#m85f8740f35" y="307.584"/>
      </g>
     </g>
     <g id="text_5">
      <!-- 2000 -->
      <g transform="translate(268.886636 322.182437)scale(0.1 -0.1)">
       <defs>
        <path d="M 19.1875 8.296875 
L 53.609375 8.296875 
L 53.609375 0 
L 7.328125 0 
L 7.328125 8.296875 
Q 12.9375 14.109375 22.625 23.890625 
Q 32.328125 33.6875 34.8125 36.53125 
Q 39.546875 41.84375 41.421875 45.53125 
Q 43.3125 49.21875 43.3125 52.78125 
Q 43.3125 58.59375 39.234375 62.25 
Q 35.15625 65.921875 28.609375 65.921875 
Q 23.96875 65.921875 18.8125 64.3125 
Q 13.671875 62.703125 7.8125 59.421875 
L 7.8125 69.390625 
Q 13.765625 71.78125 18.9375 73 
Q 24.125 74.21875 28.421875 74.21875 
Q 39.75 74.21875 46.484375 68.546875 
Q 53.21875 62.890625 53.21875 53.421875 
Q 53.21875 48.921875 51.53125 44.890625 
Q 49.859375 40.875 45.40625 35.40625 
Q 44.1875 33.984375 37.640625 27.21875 
Q 31.109375 20.453125 19.1875 8.296875 
z
" id="DejaVuSans-50"/>
       </defs>
       <use xlink:href="#DejaVuSans-50"/>
       <use x="63.623047" xlink:href="#DejaVuSans-48"/>
       <use x="127.246094" xlink:href="#DejaVuSans-48"/>
       <use x="190.869141" xlink:href="#DejaVuSans-48"/>
      </g>
     </g>
    </g>
    <g id="xtick_6">
     <g id="line2d_6">
      <g>
       <use style="stroke:#000000;stroke-width:0.8;" x="333.556364" xlink:href="#m85f8740f35" y="307.584"/>
      </g>
     </g>
     <g id="text_6">
      <!-- 2500 -->
      <g transform="translate(320.831364 322.182437)scale(0.1 -0.1)">
       <use xlink:href="#DejaVuSans-50"/>
       <use x="63.623047" xlink:href="#DejaVuSans-53"/>
       <use x="127.246094" xlink:href="#DejaVuSans-48"/>
       <use x="190.869141" xlink:href="#DejaVuSans-48"/>
      </g>
     </g>
    </g>
    <g id="xtick_7">
     <g id="line2d_7">
      <g>
       <use style="stroke:#000000;stroke-width:0.8;" x="385.501091" xlink:href="#m85f8740f35" y="307.584"/>
      </g>
     </g>
     <g id="text_7">
      <!-- 3000 -->
      <g transform="translate(372.776091 322.182437)scale(0.1 -0.1)">
       <defs>
        <path d="M 40.578125 39.3125 
Q 47.65625 37.796875 51.625 33 
Q 55.609375 28.21875 55.609375 21.1875 
Q 55.609375 10.40625 48.1875 4.484375 
Q 40.765625 -1.421875 27.09375 -1.421875 
Q 22.515625 -1.421875 17.65625 -0.515625 
Q 12.796875 0.390625 7.625 2.203125 
L 7.625 11.71875 
Q 11.71875 9.328125 16.59375 8.109375 
Q 21.484375 6.890625 26.8125 6.890625 
Q 36.078125 6.890625 40.9375 10.546875 
Q 45.796875 14.203125 45.796875 21.1875 
Q 45.796875 27.640625 41.28125 31.265625 
Q 36.765625 34.90625 28.71875 34.90625 
L 20.21875 34.90625 
L 20.21875 43.015625 
L 29.109375 43.015625 
Q 36.375 43.015625 40.234375 45.921875 
Q 44.09375 48.828125 44.09375 54.296875 
Q 44.09375 59.90625 40.109375 62.90625 
Q 36.140625 65.921875 28.71875 65.921875 
Q 24.65625 65.921875 20.015625 65.03125 
Q 15.375 64.15625 9.8125 62.3125 
L 9.8125 71.09375 
Q 15.4375 72.65625 20.34375 73.4375 
Q 25.25 74.21875 29.59375 74.21875 
Q 40.828125 74.21875 47.359375 69.109375 
Q 53.90625 64.015625 53.90625 55.328125 
Q 53.90625 49.265625 50.4375 45.09375 
Q 46.96875 40.921875 40.578125 39.3125 
z
" id="DejaVuSans-51"/>
       </defs>
       <use xlink:href="#DejaVuSans-51"/>
       <use x="63.623047" xlink:href="#DejaVuSans-48"/>
       <use x="127.246094" xlink:href="#DejaVuSans-48"/>
       <use x="190.869141" xlink:href="#DejaVuSans-48"/>
      </g>
     </g>
    </g>
   </g>
   <g id="matplotlib.axis_2">
    <g id="ytick_1">
     <g id="line2d_8">
      <defs>
       <path d="M 0 0 
L -3.5 0 
" id="m6862510b68" style="stroke:#000000;stroke-width:0.8;"/>
      </defs>
      <g>
       <use style="stroke:#000000;stroke-width:0.8;" x="57.6" xlink:href="#m6862510b68" y="295.488"/>
      </g>
     </g>
     <g id="text_8">
      <!-- 0.0 -->
      <g transform="translate(34.696875 299.287219)scale(0.1 -0.1)">
       <defs>
        <path d="M 10.6875 12.40625 
L 21 12.40625 
L 21 0 
L 10.6875 0 
z
" id="DejaVuSans-46"/>
       </defs>
       <use xlink:href="#DejaVuSans-48"/>
       <use x="63.623047" xlink:href="#DejaVuSans-46"/>
       <use x="95.410156" xlink:href="#DejaVuSans-48"/>
      </g>
     </g>
    </g>
    <g id="ytick_2">
     <g id="line2d_9">
      <g>
       <use style="stroke:#000000;stroke-width:0.8;" x="57.6" xlink:href="#m6862510b68" y="261.278104"/>
      </g>
     </g>
     <g id="text_9">
      <!-- 2.5 -->
      <g transform="translate(34.696875 265.077323)scale(0.1 -0.1)">
       <use xlink:href="#DejaVuSans-50"/>
       <use x="63.623047" xlink:href="#DejaVuSans-46"/>
       <use x="95.410156" xlink:href="#DejaVuSans-53"/>
      </g>
     </g>
    </g>
    <g id="ytick_3">
     <g id="line2d_10">
      <g>
       <use style="stroke:#000000;stroke-width:0.8;" x="57.6" xlink:href="#m6862510b68" y="227.068208"/>
      </g>
     </g>
     <g id="text_10">
      <!-- 5.0 -->
      <g transform="translate(34.696875 230.867427)scale(0.1 -0.1)">
       <use xlink:href="#DejaVuSans-53"/>
       <use x="63.623047" xlink:href="#DejaVuSans-46"/>
       <use x="95.410156" xlink:href="#DejaVuSans-48"/>
      </g>
     </g>
    </g>
    <g id="ytick_4">
     <g id="line2d_11">
      <g>
       <use style="stroke:#000000;stroke-width:0.8;" x="57.6" xlink:href="#m6862510b68" y="192.858312"/>
      </g>
     </g>
     <g id="text_11">
      <!-- 7.5 -->
      <g transform="translate(34.696875 196.657531)scale(0.1 -0.1)">
       <defs>
        <path d="M 8.203125 72.90625 
L 55.078125 72.90625 
L 55.078125 68.703125 
L 28.609375 0 
L 18.3125 0 
L 43.21875 64.59375 
L 8.203125 64.59375 
z
" id="DejaVuSans-55"/>
       </defs>
       <use xlink:href="#DejaVuSans-55"/>
       <use x="63.623047" xlink:href="#DejaVuSans-46"/>
       <use x="95.410156" xlink:href="#DejaVuSans-53"/>
      </g>
     </g>
    </g>
    <g id="ytick_5">
     <g id="line2d_12">
      <g>
       <use style="stroke:#000000;stroke-width:0.8;" x="57.6" xlink:href="#m6862510b68" y="158.648416"/>
      </g>
     </g>
     <g id="text_12">
      <!-- 10.0 -->
      <g transform="translate(28.334375 162.447635)scale(0.1 -0.1)">
       <use xlink:href="#DejaVuSans-49"/>
       <use x="63.623047" xlink:href="#DejaVuSans-48"/>
       <use x="127.246094" xlink:href="#DejaVuSans-46"/>
       <use x="159.033203" xlink:href="#DejaVuSans-48"/>
      </g>
     </g>
    </g>
    <g id="ytick_6">
     <g id="line2d_13">
      <g>
       <use style="stroke:#000000;stroke-width:0.8;" x="57.6" xlink:href="#m6862510b68" y="124.43852"/>
      </g>
     </g>
     <g id="text_13">
      <!-- 12.5 -->
      <g transform="translate(28.334375 128.237739)scale(0.1 -0.1)">
       <use xlink:href="#DejaVuSans-49"/>
       <use x="63.623047" xlink:href="#DejaVuSans-50"/>
       <use x="127.246094" xlink:href="#DejaVuSans-46"/>
       <use x="159.033203" xlink:href="#DejaVuSans-53"/>
      </g>
     </g>
    </g>
    <g id="ytick_7">
     <g id="line2d_14">
      <g>
       <use style="stroke:#000000;stroke-width:0.8;" x="57.6" xlink:href="#m6862510b68" y="90.228624"/>
      </g>
     </g>
     <g id="text_14">
      <!-- 15.0 -->
      <g transform="translate(28.334375 94.027843)scale(0.1 -0.1)">
       <use xlink:href="#DejaVuSans-49"/>
       <use x="63.623047" xlink:href="#DejaVuSans-53"/>
       <use x="127.246094" xlink:href="#DejaVuSans-46"/>
       <use x="159.033203" xlink:href="#DejaVuSans-48"/>
      </g>
     </g>
    </g>
    <g id="ytick_8">
     <g id="line2d_15">
      <g>
       <use style="stroke:#000000;stroke-width:0.8;" x="57.6" xlink:href="#m6862510b68" y="56.018729"/>
      </g>
     </g>
     <g id="text_15">
      <!-- 17.5 -->
      <g transform="translate(28.334375 59.817947)scale(0.1 -0.1)">
       <use xlink:href="#DejaVuSans-49"/>
       <use x="63.623047" xlink:href="#DejaVuSans-55"/>
       <use x="127.246094" xlink:href="#DejaVuSans-46"/>
       <use x="159.033203" xlink:href="#DejaVuSans-53"/>
      </g>
     </g>
    </g>
   </g>
   <g id="line2d_16">
    <path clip-path="url(#pe30bc10ac0)" d="M 73.832727 295.488 
L 74.352175 295.488 
L 74.767732 287.115028 
L 75.18329 287.115028 
L 75.391069 286.007476 
L 76.429964 286.007476 
L 76.533853 285.605188 
L 76.741632 281.490173 
L 77.0533 275.421512 
L 77.468858 271.629203 
L 77.572748 271.629203 
L 77.780527 269.237616 
L 78.092195 268.395145 
L 78.299974 268.36199 
L 78.507753 267.025367 
L 78.923311 262.121582 
L 79.0272 263.105844 
L 79.546647 252.549143 
L 79.650537 252.388962 
L 79.754426 249.902547 
L 79.858316 250.404808 
L 79.962205 250.351675 
L 80.169984 247.613698 
L 80.273873 247.569912 
L 80.481652 247.814377 
L 80.585542 247.908737 
L 80.89721 242.183054 
L 81.104989 243.141538 
L 81.208879 243.141538 
L 81.416657 244.504282 
L 81.520547 243.561029 
L 81.624436 243.722832 
L 81.832215 238.879398 
L 82.039994 233.925394 
L 82.559441 227.241393 
L 82.87111 224.953068 
L 83.286668 226.904197 
L 83.390557 226.904197 
L 83.598336 227.048506 
L 83.702225 225.447518 
L 83.806115 226.394985 
L 84.429452 216.9273 
L 84.533341 217.049431 
L 84.637231 216.820591 
L 84.845009 214.641858 
L 84.948899 214.578884 
L 85.052788 213.962839 
L 85.364457 214.294259 
L 85.572236 215.577432 
L 85.780015 213.995921 
L 85.883904 214.957469 
L 86.091683 214.209434 
L 86.299462 214.645564 
L 86.403351 214.515959 
L 86.61113 210.367179 
L 86.71502 209.854842 
L 86.818909 210.075542 
L 87.130577 207.654467 
L 87.234467 207.144297 
L 87.338356 208.415004 
L 87.442246 207.951728 
L 87.650025 206.765283 
L 87.961693 208.607903 
L 88.065583 209.54054 
L 88.169472 208.725229 
L 88.48114 210.1001 
L 88.58503 210.06502 
L 88.688919 208.380603 
L 89.000588 210.999557 
L 89.104477 210.41647 
L 89.312256 211.447549 
L 89.416145 210.515136 
L 89.520035 211.198371 
L 89.727814 209.900337 
L 89.831703 209.279497 
L 89.935593 210.402384 
L 90.143372 209.63122 
L 90.45504 214.393949 
L 90.558929 213.555935 
L 90.662819 213.959164 
L 90.974487 219.045729 
L 91.078377 218.57685 
L 91.182266 218.857833 
L 91.390045 217.782392 
L 91.805603 211.134415 
L 91.909492 211.408343 
L 92.117271 208.607903 
L 92.32505 210.928666 
L 92.532829 207.134124 
L 92.636719 206.593232 
L 92.948387 198.255219 
L 93.052276 198.495856 
L 93.156166 200.487027 
L 93.363945 199.73001 
L 93.675613 196.472103 
L 93.779503 196.357189 
L 93.987281 197.094344 
L 94.19506 200.030841 
L 94.29895 198.409405 
L 94.610618 200.897891 
L 94.714508 200.834565 
L 94.818397 202.437083 
L 94.922287 202.195914 
L 95.026176 201.514369 
L 95.130065 201.549445 
L 95.233955 202.03548 
L 95.753402 196.06446 
L 95.857292 196.130777 
L 95.961181 196.711429 
L 96.584518 190.138938 
L 96.688407 190.823697 
L 97.000076 186.570568 
L 97.207855 184.994802 
L 97.311744 186.131339 
L 97.519523 184.867436 
L 97.935081 174.882711 
L 98.03897 175.002009 
L 98.350639 166.720279 
L 98.454528 166.627246 
L 98.558417 167.23317 
L 98.766196 163.489499 
L 98.870086 163.571235 
L 98.973975 165.619809 
L 99.077865 165.513732 
L 99.285644 167.584048 
L 99.701201 164.035363 
L 100.01287 165.885382 
L 100.116759 165.377804 
L 100.220649 165.594435 
L 100.324538 165.182224 
L 100.428428 162.641076 
L 100.636207 164.423392 
L 100.947875 158.874114 
L 101.051764 159.141929 
L 101.363433 156.422354 
L 101.675101 159.50057 
L 101.778991 159.346436 
L 102.194548 165.825292 
L 102.506217 163.666657 
L 102.610106 165.267322 
L 102.921775 160.471218 
L 103.025664 159.754169 
L 103.129553 161.205482 
L 103.233443 160.929107 
L 103.441222 158.907014 
L 103.545111 159.421279 
L 103.75289 161.609925 
L 103.960669 162.573436 
L 104.480116 152.96867 
L 104.687895 152.492272 
L 104.895674 150.676803 
L 104.999564 151.188729 
L 105.103453 151.039316 
L 105.207343 148.324932 
L 105.311232 148.926737 
L 105.519011 146.666916 
L 105.72679 147.85946 
L 106.142348 140.720072 
L 106.350127 135.61251 
L 106.454016 134.752798 
L 106.765684 128.607429 
L 106.869574 129.119877 
L 107.181242 125.997716 
L 107.285132 126.484522 
L 107.492911 132.265047 
L 107.700689 129.091066 
L 108.116247 125.545798 
L 108.324026 126.837668 
L 108.739584 120.835227 
L 108.843473 121.307604 
L 108.947363 121.211307 
L 109.051252 121.634723 
L 109.155142 120.114526 
L 109.362921 121.65885 
L 109.46681 121.022307 
L 109.674589 123.443253 
L 109.778479 122.852188 
L 109.882368 123.828537 
L 109.986257 123.600052 
L 110.090147 124.7508 
L 110.194036 124.613984 
L 110.297926 122.463883 
L 110.609594 125.688657 
L 110.713484 125.237559 
L 110.817373 126.999404 
L 110.921263 125.836935 
L 111.129041 128.166367 
L 111.232931 127.71575 
L 111.44071 123.915825 
L 111.544599 124.316175 
L 111.648489 124.202443 
L 112.064047 131.284149 
L 112.271825 131.441137 
L 112.375715 132.421142 
L 112.895162 127.96952 
L 112.999052 129.523754 
L 113.102941 129.262204 
L 113.206831 129.489458 
L 113.31072 127.594363 
L 113.830167 134.620512 
L 114.037946 133.582772 
L 114.661283 142.988035 
L 114.765172 142.576026 
L 114.869062 142.938928 
L 115.28462 138.191271 
L 115.388509 139.511042 
L 115.492399 139.182929 
L 115.700177 137.495693 
L 115.804067 137.64747 
L 116.011846 132.516709 
L 116.219625 131.605587 
L 116.323514 132.272389 
L 116.427404 133.808688 
L 116.531293 133.518019 
L 116.635183 134.551618 
L 116.739072 134.23917 
L 116.842961 134.365564 
L 117.15463 130.456058 
L 117.258519 130.848654 
L 117.362409 130.594087 
L 117.570188 132.171462 
L 117.674077 134.678257 
L 117.881856 133.629041 
L 117.985745 133.36826 
L 118.193524 136.612588 
L 118.297414 134.97476 
L 118.401303 135.485131 
L 118.505193 134.25961 
L 118.712972 135.672488 
L 118.816861 135.126019 
L 119.02464 136.230238 
L 119.128529 136.145605 
L 119.232419 136.288567 
L 119.440198 134.566511 
L 119.544087 134.480892 
L 119.647977 133.762368 
L 119.855756 131.484974 
L 120.063535 131.880039 
L 120.167424 133.023047 
L 120.271313 132.964046 
L 120.479092 131.550752 
L 120.582982 131.585479 
L 120.686871 132.746667 
L 120.99854 130.3254 
L 121.102429 130.312703 
L 121.206319 130.839556 
L 121.310208 130.552303 
L 121.414097 131.669585 
L 121.725766 129.118076 
L 121.829655 131.007048 
L 122.141324 127.255655 
L 122.245213 127.631841 
L 122.452992 128.939891 
L 122.660771 125.237559 
L 122.76466 123.657581 
L 123.076329 128.032128 
L 123.180218 129.769445 
L 123.387997 128.058968 
L 123.491887 128.347313 
L 123.595776 128.327596 
L 123.803555 126.715137 
L 123.907444 128.787056 
L 124.426892 124.975556 
L 124.530781 124.167464 
L 124.73856 120.632926 
L 125.154118 116.832721 
L 125.465786 112.156456 
L 125.569676 111.406257 
L 125.673565 109.608462 
L 125.777455 111.984945 
L 126.193012 103.932914 
L 126.296902 103.635976 
L 126.60857 100.713015 
L 126.816349 96.452673 
L 127.128017 98.591102 
L 127.231907 99.60253 
L 127.335796 99.211376 
L 127.543575 100.023587 
L 127.751354 102.925191 
L 127.959133 97.869657 
L 128.270801 100.152382 
L 128.374691 101.554686 
L 128.47858 101.107191 
L 128.58247 103.160269 
L 128.790249 100.963902 
L 128.998028 102.567674 
L 129.101917 101.523791 
L 129.205807 104.079991 
L 129.413585 102.001667 
L 129.621364 104.213084 
L 129.725254 103.214799 
L 129.829143 103.954812 
L 129.933033 105.566489 
L 130.348591 98.350834 
L 130.556369 96.580662 
L 130.660259 96.660509 
L 130.868038 99.432832 
L 130.971927 98.9673 
L 131.179706 102.17362 
L 132.42638 83.796854 
L 132.530269 83.62709 
L 132.634159 84.777079 
L 132.738048 84.450305 
L 133.049716 81.17362 
L 133.153606 81.877947 
L 133.361385 79.344517 
L 133.465274 79.669113 
L 133.569164 78.39572 
L 133.673053 78.77004 
L 133.776943 80.329522 
L 133.984721 77.301328 
L 134.29639 72.748799 
L 134.400279 73.564062 
L 134.711948 71.706116 
L 134.815837 72.555193 
L 135.231395 67.396485 
L 135.335284 66.730194 
L 135.646953 62.610345 
L 135.750842 62.905145 
L 136.062511 66.829752 
L 136.1664 65.37215 
L 136.270289 67.663284 
L 136.581958 65.171736 
L 136.685847 64.073855 
L 136.789737 67.06572 
L 136.893626 63.899143 
L 137.101405 65.796981 
L 137.205295 64.268134 
L 137.413073 65.176939 
L 137.516963 64.598785 
L 137.620852 66.952949 
L 137.724742 66.03711 
L 137.932521 67.742201 
L 138.1403 70.320721 
L 138.244189 71.021692 
L 138.555857 77.298582 
L 138.763636 79.204564 
L 139.179194 88.818365 
L 139.283084 87.228403 
L 139.490863 89.885171 
L 139.698641 92.283107 
L 139.802531 91.165651 
L 139.90642 92.762847 
L 140.01031 92.489625 
L 140.321978 95.005354 
L 140.425868 93.5239 
L 140.945315 101.045548 
L 141.049204 100.206072 
L 141.153094 101.545417 
L 141.256983 100.425585 
L 141.360873 102.045029 
L 141.464762 101.406435 
L 141.672541 102.336419 
L 141.776431 105.282751 
L 141.88032 104.934961 
L 142.088099 107.722549 
L 142.191988 107.507265 
L 142.399767 103.784387 
L 142.503657 104.716541 
L 142.607546 104.225615 
L 142.815325 106.364804 
L 143.230883 102.234072 
L 143.334772 102.782105 
L 143.438662 102.646893 
L 143.542551 102.17207 
L 143.646441 102.227871 
L 143.85422 100.636121 
L 143.958109 99.999065 
L 144.165888 95.875488 
L 144.269777 94.088395 
L 144.373667 96.115779 
L 144.477556 94.939611 
L 144.685335 99.526072 
L 144.789225 97.593927 
L 144.893114 97.63935 
L 145.100893 97.25207 
L 145.204783 98.018287 
L 145.308672 97.887851 
L 145.62034 95.866483 
L 145.72423 94.453186 
L 145.828119 94.56499 
L 145.932009 95.463163 
L 146.035898 95.159336 
L 146.139788 93.495717 
L 146.243677 94.134516 
L 146.451456 93.108964 
L 146.555345 91.509058 
L 146.763124 93.197807 
L 146.867014 91.675098 
L 147.282572 93.409708 
L 147.490351 90.68819 
L 147.59424 89.601216 
L 147.698129 89.770085 
L 147.802019 88.574965 
L 147.905908 88.683591 
L 148.009798 90.689653 
L 148.113687 89.339451 
L 148.321466 91.435632 
L 148.425356 89.882256 
L 148.633135 90.512718 
L 148.737024 90.502486 
L 148.944803 87.019911 
L 149.048692 86.450139 
L 149.256471 83.638403 
L 149.360361 83.850642 
L 149.879808 78.779717 
L 149.983697 79.992808 
L 150.087587 79.565023 
L 150.295366 78.300517 
L 150.399255 80.27383 
L 150.503145 79.726037 
L 150.607034 79.784365 
L 150.710924 79.268294 
L 150.918703 76.383255 
L 151.022592 76.848661 
L 151.230371 73.015284 
L 151.749818 65.26151 
L 151.853708 64.735073 
L 152.061487 62.531881 
L 152.165376 62.332623 
L 152.269265 61.327362 
L 152.373155 62.358324 
L 152.477044 61.48735 
L 152.788713 64.19688 
L 152.892602 63.286749 
L 152.996492 64.495 
L 153.204271 63.306104 
L 153.412049 65.723948 
L 153.619828 63.628922 
L 153.723718 65.170435 
L 153.827607 65.076795 
L 153.931497 64.801299 
L 154.035386 66.298405 
L 154.139276 65.660063 
L 154.243165 66.227826 
L 154.450944 68.941153 
L 154.554833 69.132992 
L 154.762612 70.287459 
L 154.970391 73.645078 
L 155.074281 73.348165 
L 155.17817 73.524915 
L 155.385949 71.262072 
L 155.489839 71.43584 
L 155.697617 68.836702 
L 155.905396 68.879005 
L 156.009286 68.651717 
L 156.217065 67.96463 
L 156.320954 67.807986 
L 156.424844 68.087125 
L 156.840401 66.396467 
L 157.04818 63.491992 
L 157.15207 64.507971 
L 157.255959 63.131969 
L 157.359849 63.532029 
L 157.879296 56.375716 
L 157.983185 57.117373 
L 158.190964 58.371257 
L 158.294854 59.012729 
L 158.710412 55.563915 
L 158.918191 53.568 
L 159.02208 55.083633 
L 159.125969 54.815841 
L 159.229859 53.998118 
L 159.437638 58.45972 
L 159.541527 58.696204 
L 159.645417 58.156557 
L 159.749306 58.978523 
L 159.853196 58.332092 
L 159.957085 58.485001 
L 160.164864 61.83971 
L 160.372643 61.071608 
L 160.476532 61.870487 
L 160.684311 64.047963 
L 160.788201 64.392559 
L 160.89209 64.31349 
L 160.99598 64.05573 
L 161.099869 63.457127 
L 161.203759 63.724562 
L 161.307648 63.162917 
L 161.411537 64.937706 
L 161.515427 64.297938 
L 161.619316 65.141819 
L 161.930985 71.327553 
L 162.138764 73.655883 
L 162.242653 75.1982 
L 162.450432 73.233554 
L 162.554321 73.183683 
L 162.7621 72.145677 
L 162.86599 72.432931 
L 162.969879 70.072041 
L 163.177658 70.840243 
L 163.489327 68.657 
L 163.593216 67.727731 
L 164.112663 69.928544 
L 164.216553 68.74419 
L 164.528221 71.204624 
L 164.632111 71.844056 
L 164.839889 68.803658 
L 164.943779 68.670209 
L 165.047668 68.823484 
L 165.151558 67.971214 
L 165.463226 70.182384 
L 165.878784 71.890948 
L 166.086563 71.409097 
L 166.190452 71.568261 
L 166.398231 69.132992 
L 166.502121 70.970979 
L 166.917679 67.051293 
L 167.021568 67.9857 
L 167.333236 67.308497 
L 167.541015 66.03711 
L 167.644905 65.860904 
L 167.748794 66.56785 
L 167.956573 65.14442 
L 168.164352 66.233053 
L 168.372131 66.895274 
L 168.47602 66.838924 
L 168.57991 65.793068 
L 168.683799 66.888721 
L 168.787689 65.704389 
L 168.995468 66.348084 
L 169.203247 64.339411 
L 169.411025 62.178476 
L 169.514915 62.178476 
L 169.618804 62.609059 
L 170.138252 68.077903 
L 170.242141 67.308497 
L 170.346031 68.383757 
L 170.44992 66.828441 
L 170.553809 67.584395 
L 170.761588 66.214758 
L 170.865478 65.255004 
L 170.969367 66.071061 
L 171.073257 68.142467 
L 171.177146 67.626466 
L 171.281036 67.856679 
L 171.592704 66.005774 
L 171.800483 69.498598 
L 171.904372 69.110492 
L 172.008262 69.238904 
L 172.112151 69.152847 
L 172.216041 69.342216 
L 172.42382 69.107845 
L 172.631599 67.840885 
L 172.735488 67.747463 
L 172.943267 65.793068 
L 173.047156 66.285333 
L 173.254935 64.975395 
L 173.358825 64.548184 
L 173.462714 63.635383 
L 173.774383 67.321627 
L 173.878272 67.512104 
L 174.086051 66.48803 
L 174.18994 67.002771 
L 174.397719 68.623982 
L 174.605498 67.399112 
L 174.709388 67.13787 
L 174.917167 64.365335 
L 175.021056 64.308306 
L 175.124945 63.328042 
L 175.540503 66.959504 
L 175.644393 67.097201 
L 175.956061 64.125647 
L 176.059951 65.404702 
L 176.16384 64.427566 
L 176.267729 65.601409 
L 176.475508 62.893552 
L 176.579398 62.893552 
L 176.683287 62.394311 
L 176.787177 64.918215 
L 176.891066 64.816884 
L 177.514403 69.046975 
L 177.929961 75.79061 
L 178.03385 75.954315 
L 178.241629 73.226814 
L 178.553297 77.129753 
L 178.657187 77.27524 
L 178.761076 78.266033 
L 178.864966 76.814406 
L 179.072745 82.24714 
L 179.280524 85.302399 
L 179.488303 88.550352 
L 179.592192 89.215955 
L 179.799971 87.775789 
L 179.90386 87.157924 
L 180.00775 89.870599 
L 180.215529 88.210401 
L 180.319418 88.289914 
L 180.423308 88.622754 
L 180.527197 87.948947 
L 180.631087 88.976439 
L 180.734976 88.362225 
L 180.942755 90.579964 
L 181.150534 89.375787 
L 181.358313 93.480885 
L 181.566092 92.829362 
L 181.669981 91.54725 
L 181.87776 94.29081 
L 182.397207 88.527188 
L 182.501097 88.88216 
L 182.604986 88.100579 
L 182.812765 88.39405 
L 183.020544 84.037588 
L 183.436102 89.991573 
L 183.539991 89.223218 
L 183.74777 90.893098 
L 183.85166 90.696968 
L 183.955549 90.754031 
L 184.371107 87.431344 
L 184.682775 90.429421 
L 184.786665 89.346718 
L 184.994444 90.797937 
L 185.098333 90.711598 
L 185.306112 90.975119 
L 185.513891 95.478141 
L 185.72167 97.44259 
L 185.929449 98.793581 
L 186.033338 98.747891 
L 186.448896 105.325284 
L 186.552785 106.569271 
L 186.864454 105.667476 
L 187.072233 104.724393 
L 187.176122 104.471704 
L 187.280012 106.233364 
L 187.383901 105.359949 
L 187.59168 106.74856 
L 187.799459 105.801682 
L 187.903348 106.064053 
L 188.007238 104.692985 
L 188.215017 105.364676 
L 188.318906 103.447112 
L 188.630575 105.399347 
L 188.734464 106.125747 
L 188.942243 104.944395 
L 189.046132 104.817077 
L 189.253911 106.626371 
L 189.46169 104.481115 
L 189.669469 106.07038 
L 189.773359 104.518764 
L 190.085027 110.131422 
L 190.292806 108.863689 
L 190.500585 110.75963 
L 190.604474 110.884555 
L 191.020032 107.583782 
L 191.227811 107.594943 
L 191.43559 106.84065 
L 191.539479 107.047223 
L 191.643369 105.929661 
L 191.747258 107.204689 
L 191.851148 105.601197 
L 191.955037 105.714832 
L 192.058927 107.316108 
L 192.266705 106.610508 
L 192.370595 107.212645 
L 192.474484 106.777135 
L 192.786153 107.716167 
L 192.890042 105.7622 
L 192.993932 106.975692 
L 193.097821 106.608922 
L 193.201711 105.719568 
L 193.3056 107.101288 
L 193.721158 105.601197 
L 193.825047 106.272945 
L 193.928937 105.959693 
L 194.032826 107.079024 
L 194.448384 105.156781 
L 194.863942 108.634262 
L 195.071721 107.26039 
L 195.487279 111.146034 
L 195.798947 111.980047 
L 196.110615 110.112027 
L 196.422284 110.886178 
L 196.733952 109.334657 
L 196.837841 109.729387 
L 196.941731 109.104651 
L 197.14951 111.2761 
L 197.253399 109.86653 
L 197.357289 110.719088 
L 197.461178 113.351687 
L 197.668957 111.697818 
L 197.772847 112.131945 
L 198.188404 115.387976 
L 198.396183 113.979486 
L 198.500073 113.62495 
L 198.603962 114.318179 
L 198.707852 114.111584 
L 198.811741 114.569717 
L 198.915631 113.953078 
L 199.01952 114.118191 
L 199.123409 115.211729 
L 199.227299 115.105398 
L 199.746746 117.958165 
L 199.850636 118.196278 
L 199.954525 118.795507 
L 200.058415 117.461016 
L 200.266193 118.465172 
L 200.370083 118.673465 
L 200.473972 118.549815 
L 200.785641 120.975947 
L 200.88953 121.142556 
L 201.097309 124.006652 
L 201.201199 124.929878 
L 201.305088 124.510568 
L 201.408977 124.798185 
L 201.616756 122.756764 
L 201.824535 121.836466 
L 201.928425 122.418869 
L 202.136204 121.323085 
L 202.240093 121.448706 
L 202.343983 122.142113 
L 202.655651 119.151944 
L 202.75954 119.352544 
L 203.071209 118.17769 
L 203.175098 118.035812 
L 203.382877 116.253426 
L 203.486767 117.112997 
L 203.590656 116.547862 
L 203.694545 114.848139 
L 203.798435 116.663427 
L 204.110103 112.351029 
L 204.213993 112.130311 
L 204.421772 110.435545 
L 204.525661 111.567454 
L 204.837329 107.3177 
L 205.148998 109.300862 
L 205.356777 108.903828 
L 205.772335 112.393569 
L 205.876224 111.5756 
L 205.980113 113.765033 
L 206.084003 113.743601 
L 206.187892 112.891688 
L 206.395671 114.781809 
L 206.499561 114.901221 
L 206.60345 116.1114 
L 206.811229 115.16354 
L 206.915119 115.982838 
L 207.122897 114.209067 
L 207.226787 113.722172 
L 207.330676 114.114888 
L 207.538455 116.380509 
L 207.746234 116.748892 
L 208.057903 117.210441 
L 208.161792 117.141552 
L 208.369571 119.085694 
L 208.57735 117.65634 
L 208.889018 120.4069 
L 208.992908 120.816358 
L 209.096797 119.815817 
L 209.200687 120.933033 
L 209.408465 119.89258 
L 209.616244 120.133319 
L 209.824023 119.009283 
L 209.927913 119.602765 
L 210.031802 121.410838 
L 210.135692 121.391907 
L 210.239581 120.890129 
L 210.343471 122.334065 
L 210.44736 122.228552 
L 210.655139 119.689659 
L 210.759028 119.884049 
L 210.862918 120.047913 
L 211.070697 117.912606 
L 211.174586 118.152347 
L 211.278476 118.970241 
L 211.590144 122.956346 
L 211.797923 122.150755 
L 211.901812 122.138656 
L 212.629039 134.073892 
L 212.836817 135.376565 
L 212.940707 135.488876 
L 213.044596 134.505084 
L 213.252375 135.500112 
L 213.356265 135.826285 
L 213.564044 135.329791 
L 213.667933 136.062896 
L 213.979601 135.526331 
L 214.083491 135.724988 
L 214.18738 136.552255 
L 214.395159 134.831102 
L 214.499049 134.831102 
L 214.602938 135.111074 
L 214.914607 133.207561 
L 215.018496 133.207561 
L 215.122385 133.969984 
L 215.330164 132.980638 
L 215.641833 131.905678 
L 215.849612 130.98337 
L 216.057391 131.777523 
L 216.16128 131.275026 
L 216.369059 131.874546 
L 216.576838 131.667756 
L 216.680727 132.057763 
L 216.888506 131.441137 
L 217.200175 133.414467 
L 217.304064 133.414467 
L 217.511843 132.098099 
L 217.719622 132.595778 
L 218.03129 136.361979 
L 218.13518 136.188856 
L 218.239069 137.003421 
L 218.342959 136.518328 
L 218.550737 137.782294 
L 218.758516 138.924379 
L 218.966295 138.524945 
L 219.070185 139.165679 
L 219.277964 138.551669 
L 219.381853 139.837921 
L 219.589632 139.156097 
L 219.693521 139.539856 
L 220.00519 136.437309 
L 220.316858 139.809051 
L 220.420748 140.646528 
L 220.628527 139.518725 
L 220.836305 141.38354 
L 220.940195 141.325227 
L 221.147974 142.370437 
L 221.251863 142.370437 
L 221.355753 142.221802 
L 221.563532 142.815248 
L 221.667421 143.115787 
L 221.771311 142.096747 
L 221.979089 142.864315 
L 222.082979 141.617014 
L 222.498537 144.615548 
L 222.602426 144.975405 
L 222.810205 144.816247 
L 222.914095 144.030873 
L 223.121873 144.260509 
L 223.329652 143.172819 
L 223.537431 144.442883 
L 223.641321 144.734743 
L 223.952989 143.076467 
L 224.160768 143.568697 
L 224.472436 147.088263 
L 224.576326 147.140763 
L 224.887994 145.453895 
L 224.991884 145.441915 
L 225.407441 143.503631 
L 225.511331 143.696938 
L 225.822999 144.796363 
L 225.926889 144.854032 
L 226.030778 145.138718 
L 226.134668 144.94356 
L 226.342447 144.096165 
L 226.550225 144.357616 
L 226.758004 144.488511 
L 226.861894 145.64372 
L 226.965783 145.152668 
L 227.277452 148.773502 
L 227.381341 150.39777 
L 227.485231 149.485871 
L 227.693009 149.944194 
L 227.796899 149.794001 
L 228.004678 151.865095 
L 228.108567 151.060059 
L 228.212457 151.500503 
L 228.316346 151.26557 
L 228.420236 151.975697 
L 228.524125 153.803579 
L 228.628015 152.645302 
L 228.835793 157.640609 
L 228.939683 156.504244 
L 229.043572 156.709183 
L 229.147462 156.35343 
L 229.251351 155.449817 
L 229.355241 155.932018 
L 229.45913 155.55897 
L 229.56302 155.992142 
L 229.666909 154.894667 
L 229.874688 156.136115 
L 230.082467 157.215274 
L 230.186356 157.215274 
L 230.394135 158.83903 
L 230.601914 160.522265 
L 230.705804 160.362531 
L 231.017472 158.501803 
L 231.121361 158.501803 
L 231.32914 158.981616 
L 231.43303 158.10651 
L 231.536919 158.521488 
L 231.744698 157.042043 
L 231.952477 157.999692 
L 232.160256 159.192477 
L 232.264145 159.267236 
L 232.471924 156.351277 
L 232.575814 156.396503 
L 232.679703 156.318981 
L 232.783593 155.509734 
L 232.887482 155.762522 
L 233.199151 153.875492 
L 233.30304 154.019429 
L 233.510819 152.17834 
L 233.718598 151.994487 
L 233.822487 152.33522 
L 233.926377 153.495188 
L 234.134156 157.301971 
L 234.238045 158.479934 
L 234.341935 158.150133 
L 234.549713 158.644037 
L 234.653603 158.764506 
L 234.861382 158.086884 
L 235.17305 159.972865 
L 235.27694 160.096728 
L 235.380829 161.845107 
L 235.588608 160.023723 
L 235.796387 160.633302 
L 236.004166 159.251841 
L 236.108055 159.251841 
L 236.211945 159.454311 
L 236.419724 159.060651 
L 236.731392 161.876496 
L 236.835281 161.876496 
L 237.14695 159.577702 
L 237.250839 159.577702 
L 237.354729 158.977226 
L 237.458618 160.411319 
L 237.666397 159.421279 
L 237.770287 159.421279 
L 238.081955 157.096154 
L 238.185844 157.193608 
L 238.289734 157.228275 
L 238.705292 158.707544 
L 239.01696 156.278085 
L 239.224739 157.23911 
L 239.328628 156.310371 
L 239.536407 156.525803 
L 239.951965 158.849993 
L 240.159744 158.598069 
L 240.263633 158.896046 
L 240.367523 158.757932 
L 240.575302 159.399262 
L 240.88697 158.2658 
L 241.094749 159.30023 
L 241.302528 157.44948 
L 241.406417 157.801537 
L 241.510307 157.666693 
L 241.614196 158.521488 
L 241.821975 157.341002 
L 241.925865 158.052001 
L 242.133644 156.923073 
L 242.549201 161.105119 
L 242.75698 159.972865 
L 242.86087 160.688855 
L 242.964759 160.329277 
L 243.276428 160.540024 
L 243.588096 161.261272 
L 243.691985 161.261272 
L 243.795875 160.577772 
L 243.899764 161.018198 
L 244.315322 157.594975 
L 244.419212 157.858124 
L 244.626991 157.206607 
L 244.834769 157.884248 
L 244.938659 157.042043 
L 245.042548 157.085331 
L 245.146438 156.957672 
L 245.250327 156.633644 
L 245.458106 158.742594 
L 245.665885 157.975724 
L 245.977553 159.141929 
L 246.081443 159.071631 
L 246.185332 159.071631 
L 246.497001 159.975076 
L 246.60089 160.0193 
L 246.70478 161.038252 
L 247.016448 159.390457 
L 247.224227 162.404487 
L 247.328116 161.710667 
L 247.639785 163.276316 
L 247.951453 163.319379 
L 248.263121 165.446902 
L 248.367011 164.480553 
L 248.57479 164.835503 
L 248.782569 163.866814 
L 248.886458 164.094635 
L 249.094237 165.502207 
L 249.198127 165.502207 
L 249.405905 169.208268 
L 249.509795 169.186917 
L 250.029242 172.545421 
L 250.237021 172.760057 
L 250.4448 174.369585 
L 250.548689 173.962122 
L 250.756468 174.877743 
L 250.964247 175.161257 
L 251.068137 175.161257 
L 251.275916 176.33977 
L 251.379805 176.261845 
L 251.483695 176.382524 
L 251.691473 176.793247 
L 252.107031 178.314956 
L 252.210921 177.919303 
L 252.31481 178.407041 
L 252.4187 177.583406 
L 252.522589 178.366106 
L 252.730368 177.248464 
L 253.042036 177.616445 
L 253.249815 178.156535 
L 253.353705 178.445432 
L 253.457594 177.921851 
L 253.665373 179.634077 
L 253.769263 178.724779 
L 254.080931 182.827878 
L 254.28871 184.251642 
L 254.392599 183.625846 
L 254.704268 185.07075 
L 254.808157 184.58072 
L 255.015936 185.13046 
L 255.119825 185.13046 
L 255.327604 187.37399 
L 255.639273 185.301627 
L 255.950941 187.011576 
L 256.054831 186.859777 
L 256.262609 186.628348 
L 256.470388 187.595911 
L 256.678167 186.735736 
L 256.782057 187.185715 
L 256.885946 186.449604 
L 256.989836 186.956352 
L 257.093725 186.807387 
L 257.301504 187.637572 
L 257.509283 186.777068 
L 257.613172 186.956352 
L 257.717062 187.97144 
L 257.820951 187.532062 
L 257.924841 188.052281 
L 258.02873 187.55149 
L 258.340399 188.852819 
L 258.548177 188.89216 
L 258.859846 189.585831 
L 258.963735 190.629228 
L 259.067625 189.883298 
L 259.275404 190.437971 
L 259.89874 190.537838 
L 260.00263 189.724545 
L 260.210409 190.059339 
L 260.522077 192.61084 
L 260.625967 192.61084 
L 260.833745 193.329758 
L 261.041524 193.67935 
L 261.249303 193.752946 
L 261.457082 195.191399 
L 261.560972 194.866327 
L 261.768751 194.109907 
L 262.080419 199.51437 
L 262.288198 200.783935 
L 262.495977 199.58932 
L 262.703756 200.926402 
L 262.807645 201.453813 
L 262.911535 203.417837 
L 263.015424 202.759618 
L 263.119313 202.995778 
L 263.327092 203.969425 
L 263.430982 204.21528 
L 263.534871 203.727493 
L 263.74265 204.811355 
L 263.84654 204.511183 
L 263.950429 204.613328 
L 264.158208 205.158948 
L 264.469876 204.808051 
L 264.677655 205.009816 
L 264.781545 204.973399 
L 264.885434 205.076067 
L 265.093213 205.607828 
L 265.197103 205.238586 
L 265.300992 205.557842 
L 265.404881 205.125786 
L 265.61266 205.631164 
L 265.820439 205.631164 
L 266.028218 204.841097 
L 266.339887 204.061133 
L 266.547665 204.251394 
L 266.651555 203.626333 
L 266.755444 204.067687 
L 267.067113 203.740554 
L 267.171002 203.740554 
L 267.58656 203.447129 
L 267.794339 203.447129 
L 268.002118 205.291717 
L 268.106007 205.621162 
L 268.313786 204.893995 
L 268.417676 204.893995 
L 268.625455 204.330239 
L 268.729344 203.956331 
L 268.937123 205.521203 
L 269.041012 205.721233 
L 269.248791 206.552797 
L 269.352681 206.7484 
L 269.56046 206.677529 
L 269.872128 206.677529 
L 269.976017 205.707884 
L 270.391575 209.592844 
L 270.495465 210.103609 
L 270.599354 210.047485 
L 270.807133 208.384042 
L 271.014912 209.959867 
L 271.222691 209.928346 
L 271.43047 209.005383 
L 271.534359 209.244751 
L 271.742138 207.569233 
L 272.157696 209.401218 
L 272.884922 209.463885 
L 273.092701 210.914495 
L 273.196591 210.914495 
L 273.30048 211.401217 
L 273.508259 210.43408 
L 273.716038 210.43408 
L 273.923817 209.491752 
L 274.027706 209.029637 
L 274.235485 209.875837 
L 274.443264 209.488268 
L 274.547153 210.075542 
L 274.651043 209.19613 
L 274.858822 209.889836 
L 275.27438 211.490339 
L 275.378269 211.533152 
L 275.482159 211.37628 
L 275.586048 211.579556 
L 275.897716 213.118299 
L 276.001606 213.249346 
L 276.209385 213.889373 
L 276.313274 213.446307 
L 276.521053 214.146794 
L 276.728832 214.368091 
L 277.248279 214.368091 
L 277.352169 214.161529 
L 277.559948 212.918492 
L 277.663837 213.475527 
L 277.871616 211.876439 
L 278.079395 211.876439 
L 278.287174 212.538377 
L 278.494953 211.579556 
L 278.598842 211.579556 
L 278.702732 210.575096 
L 278.910511 211.287278 
L 279.0144 210.981829 
L 279.118289 211.411907 
L 279.326068 211.216145 
L 279.533847 211.937376 
L 279.741626 212.791593 
L 279.845516 212.791593 
L 280.053295 212.055794 
L 280.261073 211.550996 
L 280.468852 211.408343 
L 280.572742 211.312189 
L 280.88441 210.082558 
L 281.092189 210.486934 
L 281.196079 209.840849 
L 281.403857 211.354911 
L 281.715526 209.889836 
L 281.819415 210.328471 
L 282.027194 212.451738 
L 282.131084 211.579556 
L 282.546641 215.697497 
L 282.650531 215.892989 
L 282.85831 216.672201 
L 283.066089 216.672201 
L 283.169978 215.791423 
L 283.377757 216.308119 
L 283.585536 215.629938 
L 283.689425 215.629938 
L 283.793315 215.896753 
L 284.001094 216.824399 
L 284.104983 216.824399 
L 284.312762 217.011244 
L 284.520541 217.011244 
L 284.624431 217.202362 
L 284.72832 217.015062 
L 284.936099 217.129683 
L 285.247767 218.635303 
L 285.351657 218.635303 
L 285.559436 219.183028 
L 285.663325 219.183028 
L 285.871104 221.442737 
L 286.078883 223.008993 
L 286.182772 223.153814 
L 286.390551 222.358796 
L 286.494441 222.551603 
L 286.59833 222.448983 
L 286.806109 222.658482 
L 287.117777 222.819095 
L 287.325556 223.182813 
L 287.429446 223.21597 
L 287.533335 223.669247 
L 287.637225 223.502575 
L 287.845004 223.548371 
L 287.948893 226.152583 
L 288.052783 226.070532 
L 288.260561 226.070532 
L 288.46834 228.107322 
L 289.195567 228.102876 
L 289.403345 227.885368 
L 289.507235 227.885368 
L 289.818903 229.20564 
L 290.026682 228.975516 
L 290.130572 230.617377 
L 290.234461 229.978559 
L 290.338351 230.271914 
L 290.44224 231.853032 
L 290.650019 231.388623 
L 290.857798 234.783024 
L 290.961687 234.76822 
L 291.065577 234.159436 
L 291.169466 234.659765 
L 291.273356 234.571173 
L 291.377245 235.089792 
L 291.481135 234.625297 
L 291.688913 235.030296 
L 291.792803 235.030296 
L 292.208361 233.329683 
L 292.31225 233.329683 
L 292.41614 233.503445 
L 292.623919 233.041154 
L 292.831697 233.041154 
L 293.039476 234.169207 
L 293.351145 233.818421 
L 293.455034 234.291478 
L 293.558924 234.159436 
L 293.662813 233.305588 
L 294.18226 234.448342 
L 294.28615 234.135015 
L 294.493929 234.906534 
L 294.909487 236.16587 
L 295.013376 235.218901 
L 295.117265 235.278583 
L 295.221155 235.218901 
L 295.740602 237.107672 
L 295.844492 238.773646 
L 296.15616 237.690485 
L 296.260049 237.690485 
L 296.363939 238.331628 
L 296.571718 237.545525 
L 296.675607 237.545525 
L 296.987276 240.479168 
L 297.195055 240.359477 
L 297.610612 240.359477 
L 297.922281 239.363082 
L 298.13006 239.668183 
L 298.233949 239.668183 
L 298.337839 239.176558 
L 298.441728 239.759502 
L 298.649507 239.277737 
L 298.753396 239.277737 
L 298.961175 240.072192 
L 299.065065 240.072192 
L 299.584512 239.224462 
L 299.792291 239.309726 
L 299.89618 239.309726 
L 300.103959 240.752167 
L 300.207849 240.752167 
L 300.415628 239.331062 
L 300.519517 240.905642 
L 300.727296 240.207518 
L 300.935075 240.872718 
L 301.038964 240.872718 
L 301.350633 244.917303 
L 301.558412 244.211303 
L 301.662301 244.211303 
L 301.87008 243.664987 
L 302.077859 244.141237 
L 302.493417 243.803923 
L 302.597306 243.925799 
L 302.701196 242.987233 
L 302.805085 243.659206 
L 302.908975 243.607207 
L 303.012864 243.416987 
L 303.220643 242.177434 
L 303.428422 242.014704 
L 303.532311 242.014704 
L 303.74009 242.560968 
L 303.84398 242.560968 
L 304.051759 241.707432 
L 304.155648 241.707432 
L 304.363427 241.010032 
L 304.571206 241.153207 
L 304.675095 241.153207 
L 304.882874 241.579456 
L 305.090653 241.874817 
L 305.6101 241.874817 
L 305.817879 243.486077 
L 305.921769 242.419641 
L 306.129548 242.89031 
L 306.233437 242.657287 
L 306.441216 241.930728 
L 306.648995 242.844761 
L 306.856774 242.351937 
L 307.064553 242.149342 
L 307.376221 242.149342 
L 307.584 241.674018 
L 307.791779 241.674018 
L 307.895668 240.933094 
L 308.207337 241.679585 
L 308.415116 241.341007 
L 309.350121 241.341007 
L 309.973457 242.82769 
L 310.181236 242.82769 
L 310.492905 240.927602 
L 310.596794 240.927602 
L 310.804573 241.230458 
L 311.220131 240.522757 
L 311.739578 240.522757 
L 311.947357 239.759502 
L 312.051247 240.083006 
L 312.259025 241.374216 
L 312.362915 239.678919 
L 312.570694 240.11546 
L 312.778473 241.618373 
L 313.401809 239.921019 
L 313.713478 240.604579 
L 313.817367 239.81867 
L 314.336815 240.441056 
L 314.544593 240.441056 
L 314.752372 239.668183 
L 314.960151 239.668183 
L 315.27182 238.826497 
L 315.479599 238.747239 
L 315.895156 238.747239 
L 315.999046 241.098095 
L 316.206825 240.343176 
L 316.310714 241.065055 
L 316.518493 240.49551 
L 316.726272 241.291232 
L 316.830161 240.872718 
L 317.03794 239.791768 
L 317.14183 239.791768 
L 317.349609 240.072192 
L 317.557388 239.705767 
L 317.661277 239.705767 
L 317.869056 240.544564 
L 318.076835 240.544564 
L 318.284614 240.169593 
L 318.492393 240.169593 
L 318.700172 241.440695 
L 318.907951 241.440695 
L 319.115729 240.14252 
L 319.323508 240.763115 
L 319.531287 240.028958 
L 319.739066 239.443211 
L 319.946845 239.443211 
L 320.050735 239.13401 
L 320.154624 239.363082 
L 320.362403 240.137107 
L 320.466292 240.137107 
L 320.674071 239.267078 
L 320.777961 239.267078 
L 320.98574 240.735748 
L 321.193519 240.735748 
L 321.505187 241.579456 
L 321.712966 242.600607 
L 322.128524 240.615498 
L 322.336303 240.795973 
L 322.544081 240.845297 
L 322.75186 241.313349 
L 322.959639 241.440695 
L 323.167418 241.440695 
L 323.686865 242.323752 
L 323.894644 241.440695 
L 324.102423 241.440695 
L 324.310202 239.437865 
L 324.621871 239.437865 
L 324.72576 238.868814 
L 324.829649 239.123378 
L 324.933539 238.457569 
L 325.349097 240.927602 
L 325.556876 240.927602 
L 325.764655 240.072192 
L 325.972433 239.813289 
L 326.076323 239.813289 
L 326.284102 241.997899 
L 326.387991 241.997899 
L 326.59577 241.791059 
L 326.803549 241.869229 
L 326.907439 242.515702 
L 327.011328 242.323752 
L 327.219107 241.718575 
L 327.426886 241.718575 
L 327.738554 240.544564 
L 328.050223 242.014704 
L 328.361891 242.014704 
L 328.56967 241.718575 
L 328.673559 241.718575 
L 328.777449 241.153207 
L 328.985228 241.285704 
L 329.089117 241.285704 
L 329.193007 241.841298 
L 329.504675 240.207518 
L 329.712454 240.207518 
L 329.920233 240.63188 
L 330.335791 240.63188 
L 330.543569 240.40841 
L 330.647459 241.164236 
L 330.751348 241.120133 
L 330.855238 241.120133 
L 331.063017 240.354043 
L 331.166906 239.738002 
L 331.374685 240.41385 
L 331.998022 240.41385 
L 332.101911 239.544872 
L 332.30969 239.759502 
L 332.517469 239.464598 
L 333.140806 239.464598 
L 333.556364 240.207518 
L 333.764143 239.786389 
L 333.971921 240.19668 
L 334.387479 240.19668 
L 334.595258 240.072192 
L 335.218595 240.072192 
L 335.426374 241.897174 
L 335.634153 243.130092 
L 335.841932 243.032906 
L 336.1536 243.032906 
L 336.569158 241.579456 
L 336.673047 241.791059 
L 336.880826 241.674018 
L 337.088605 241.623935 
L 337.296384 240.889178 
L 337.504163 241.263599 
L 337.608052 241.092587 
L 337.711942 242.138109 
L 337.815831 241.981098 
L 337.919721 241.562786 
L 338.1275 241.707432 
L 338.335279 241.718575 
L 338.646947 241.479512 
L 338.854726 241.479512 
L 338.958615 241.679585 
L 339.166394 241.579456 
L 339.478063 241.579456 
L 339.789731 240.708395 
L 339.99751 242.493084 
L 340.101399 241.718575 
L 340.516957 243.896755 
L 340.620847 243.896755 
L 340.724736 244.141237 
L 340.932515 243.130092 
L 341.348073 244.858094 
L 341.451962 244.858094 
L 341.659741 244.716273 
L 341.763631 244.716273 
L 341.971409 245.32178 
L 342.075299 245.32178 
L 342.283078 245.940732 
L 343.218083 245.964925 
L 343.425862 245.579244 
L 343.529751 245.579244 
L 343.73753 245.77171 
L 343.84142 245.723524 
L 343.945309 246.850045 
L 344.256977 246.22575 
L 345.399761 246.22575 
L 345.503651 246.001236 
L 345.71143 247.004285 
L 346.023098 247.004285 
L 346.230877 247.877263 
L 346.438656 247.877263 
L 346.542545 247.663789 
L 346.750324 247.770407 
L 347.269772 247.770407 
L 347.373661 248.67686 
L 347.58144 247.688854 
L 347.789219 247.320467 
L 347.996998 247.320467 
L 348.100887 246.530782 
L 348.308666 246.671737 
L 348.620335 246.671737 
L 348.828113 247.128032 
L 349.763119 247.128032 
L 349.970897 246.213588 
L 350.386455 246.213588 
L 350.594234 246.991928 
L 350.802013 248.003284 
L 351.009792 248.003284 
L 351.217571 248.67686 
L 351.32146 248.67686 
L 351.529239 249.581634 
L 351.737018 249.477331 
L 351.840908 248.965761 
L 351.944797 249.869697 
L 352.152576 249.477331 
L 352.360355 249.477331 
L 352.568134 249.256468 
L 353.399249 249.256468 
L 353.607028 249.856564 
L 353.710918 249.856564 
L 353.814807 249.483843 
L 354.022586 249.77129 
L 354.438144 249.77129 
L 354.645923 250.564584 
L 354.853702 251.040616 
L 355.061481 250.852279 
L 355.26926 251.514988 
L 355.580928 251.514988 
L 355.788707 251.678812 
L 356.723712 251.678812 
L 356.931491 251.508175 
L 357.03538 251.508175 
L 357.243159 252.028989 
L 359.00928 252.042779 
L 359.113169 252.409821 
L 359.424838 251.14184 
L 360.048175 251.14184 
L 360.359843 250.404808 
L 360.87929 250.404808 
L 361.294848 249.056008 
L 361.398737 249.056008 
L 361.606516 249.204653 
L 361.918185 249.204653 
L 362.125964 248.485246 
L 362.229853 248.734498 
L 362.541521 246.991928 
L 362.645411 246.991928 
L 362.85319 247.103257 
L 362.957079 247.103257 
L 363.164858 245.844078 
L 363.268748 245.844078 
L 363.476527 245.363603 
L 363.580416 245.363603 
L 363.788195 245.63931 
L 363.995974 245.471307 
L 364.411532 245.459328 
L 364.619311 245.603262 
L 364.7232 245.309837 
L 365.034868 245.995183 
L 365.346537 245.995183 
L 365.554316 245.024055 
L 365.762095 244.094579 
L 365.969873 244.094579 
L 366.073763 243.347988 
L 366.281542 243.561029 
L 366.385431 243.561029 
L 366.489321 241.72972 
L 366.800989 244.141237 
L 366.904879 244.141237 
L 367.008768 245.429394 
L 367.112657 245.393497 
L 367.216547 245.393497 
L 367.424326 245.513255 
L 368.670999 245.513255 
L 368.878778 245.3397 
L 369.398225 245.3397 
L 369.606004 245.471307 
L 369.813783 245.471307 
L 370.021562 246.671737 
L 370.229341 246.973398 
L 370.43712 246.973398 
L 370.541009 247.438792 
L 370.748788 247.165217 
L 371.060457 247.165217 
L 371.683793 245.729545 
L 372.41102 245.729545 
L 372.618799 245.32178 
L 373.034356 245.32178 
L 373.242135 245.51925 
L 373.449914 245.51925 
L 373.657693 246.001236 
L 374.073251 246.001236 
L 374.28103 245.483289 
L 374.904367 245.483289 
L 375.008256 246.329248 
L 375.216035 245.970975 
L 375.527703 245.970975 
L 375.631593 247.146621 
L 375.839372 246.64106 
L 375.943261 246.727004 
L 376.15104 247.010465 
L 376.878266 246.991928 
L 377.086045 247.445027 
L 377.605492 247.445027 
L 377.813271 247.594928 
L 377.917161 247.594928 
L 378.12494 248.085378 
L 378.540497 248.085378 
L 378.748276 250.232355 
L 378.956055 250.139767 
L 379.267724 250.139767 
L 379.475503 250.351675 
L 379.683281 250.351675 
L 379.89106 250.238975 
L 380.202729 250.238975 
L 380.514397 249.056008 
L 381.86496 249.056008 
L 382.072739 250.106745 
L 382.384407 250.106745 
L 382.592186 251.020399 
L 383.007744 251.020399 
L 383.215523 251.277166 
L 384.254417 251.30428 
L 384.462196 251.583174 
L 384.669975 252.51427 
L 384.877754 251.781514 
L 385.085533 251.781514 
L 385.293312 251.209451 
L 385.397201 251.189157 
L 385.70887 250.001238 
L 386.228317 250.001238 
L 386.436096 249.836871 
L 387.371101 249.836871 
L 387.786659 251.35856 
L 387.890548 251.719864 
L 388.098327 251.610478 
L 388.306106 251.651466 
L 388.513885 252.097983 
L 388.825553 252.097983 
L 389.033332 251.372141 
L 389.968337 251.372141 
L 390.176116 250.272093 
L 390.383895 250.272093 
L 390.695564 249.12704 
L 390.799453 249.379761 
L 391.111121 249.314829 
L 391.630569 249.256468 
L 391.838348 249.529453 
L 392.046127 249.529453 
L 392.253905 250.932897 
L 394.020026 250.932897 
L 394.227805 250.564584 
L 394.435584 250.564584 
L 394.643363 250.040775 
L 395.058921 250.040775 
L 395.2667 249.856564 
L 395.370589 249.856564 
L 395.578368 250.172812 
L 395.786147 250.172812 
L 396.097815 248.869262 
L 396.305594 248.869262 
L 396.617263 248.104343 
L 396.721152 248.104343 
L 396.928931 249.93542 
L 397.863936 249.93542 
L 398.071715 250.139767 
L 398.175604 250.139767 
L 398.383383 250.021002 
L 398.487273 250.021002 
L 398.487273 250.021002 
" style="fill:none;stroke:#1f77b4;stroke-linecap:square;stroke-width:1.5;"/>
   </g>
   <g id="patch_3">
    <path d="M 57.6 307.584 
L 57.6 41.472 
" style="fill:none;stroke:#000000;stroke-linecap:square;stroke-linejoin:miter;stroke-width:0.8;"/>
   </g>
   <g id="patch_4">
    <path d="M 414.72 307.584 
L 414.72 41.472 
" style="fill:none;stroke:#000000;stroke-linecap:square;stroke-linejoin:miter;stroke-width:0.8;"/>
   </g>
   <g id="patch_5">
    <path d="M 57.6 307.584 
L 414.72 307.584 
" style="fill:none;stroke:#000000;stroke-linecap:square;stroke-linejoin:miter;stroke-width:0.8;"/>
   </g>
   <g id="patch_6">
    <path d="M 57.6 41.472 
L 414.72 41.472 
" style="fill:none;stroke:#000000;stroke-linecap:square;stroke-linejoin:miter;stroke-width:0.8;"/>
   </g>
  </g>
 </g>
 <defs>
  <clipPath id="pe30bc10ac0">
   <rect height="266.112" width="357.12" x="57.6" y="41.472"/>
  </clipPath>
 </defs>
</svg>
